<?xml version="1.0" standalone="no"?><!DOCTYPE svg PUBLIC "-//W3C//DTD SVG 1.1//EN" "http://www.w3.org/Graphics/SVG/1.1/DTD/svg11.dtd"><svg t="1768790319803" class="icon" viewBox="0 0 1024 1024" version="1.1" xmlns="http://www.w3.org/2000/svg" p-id="1826" xmlns:xlink="http://www.w3.org/1999/xlink" width="48" height="48"><path d="M477.8 642.2l-5.7 5.1h79.5l-5.7-5.1h-68.1z m-23-85.5c-11.8 0-21.4 9.6-21.4 21.4 0 11.8 9.6 21.4 21.4 21.4 11.8 0 21.4-9.6 21.4-21.4 0.1-11.8-9.5-21.4-21.4-21.4z m5.7-172.3h103c6.3 0 11.4-5.1 11.4-11.4s-5.1-11.4-11.4-11.4h-103c-6.3 0-11.4 5.1-11.4 11.4s5.1 11.4 11.4 11.4z m108.7 172.3c-11.8 0-21.4 9.6-21.4 21.4 0 11.8 9.6 21.4 21.4 21.4 11.8 0 21.4-9.6 21.4-21.4 0-11.8-9.6-21.4-21.4-21.4z m223.4-163.2c-15.3-36.3-37.3-68.8-65.3-96.8s-60.5-49.9-96.8-65.3c-37.5-15.9-77.4-23.9-118.5-23.9s-81 8.1-118.5 23.9c-36.3 15.3-68.8 37.3-96.8 65.3s-49.9 60.5-65.3 96.8c-15.9 37.5-23.9 77.4-23.9 118.5 0 41.1 8 81 23.9 118.5 15.3 36.3 37.3 68.8 65.3 96.8s60.5 49.9 96.8 65.3c37.5 15.9 77.4 23.9 118.5 23.9s81-8 118.5-23.9c36.3-15.3 68.8-37.3 96.8-65.3s49.9-60.5 65.3-96.8c15.9-37.5 23.9-77.4 23.9-118.5 0-41.1-8.1-81-23.9-118.5zM669.2 610.9c0 17.2-14.1 31.3-31.3 31.3h-55.2l29.3 25.6c3.9 3.4 1.5 9.7-3.6 9.7h-21.7c-1.4 0-2.7-0.5-3.7-1.5l-13-11.9-115.1-0.1-14.3 12c-1 0.9-2.4 1.5-3.7 1.5h-21.4c-5.1 0-7.5-6.3-3.6-9.7l29.3-25.6H386c-17.2 0-31.3-14.1-31.3-31.3v-233c0-17.2 14.1-31.3 31.3-31.3h251.8c17.2 0 31.3 14.1 31.3 31.3v233zM512 64C264.6 64 64 264.6 64 512s200.6 448 448 448 448-200.6 448-448S759.4 64 512 64z m0 776.1c-181.2 0-328.1-146.9-328.1-328.1 0-181.2 146.9-328.1 328.1-328.1S840.1 330.8 840.1 512c0 181.2-146.9 328.1-328.1 328.1zM618.8 399H405.2c-8.6 0-15.7 7-15.7 15.7v99.5c0 8.6 7 15.7 15.7 15.7h213.7c8.6 0 15.7-7 15.7-15.7v-99.5c-0.1-8.7-7.2-15.7-15.8-15.7z" fill="#c72324" p-id="1827"></path></svg>